<mxfile host="65bd71144e">
    <diagram id="jH_Tkq4LtlsDJs47SS74" name="Page-1">
        <mxGraphModel dx="578" dy="2017" grid="1" gridSize="10" guides="1" tooltips="1" connect="1" arrows="1" fold="1" page="1" pageScale="1" pageWidth="1100" pageHeight="850" math="0" shadow="0">
            <root>
                <mxCell id="0"/>
                <mxCell id="1" parent="0"/>
                <mxCell id="SD5oLy_yDbTEPHtpgn53-24" value="" style="rounded=0;whiteSpace=wrap;html=1;" parent="1" vertex="1">
                    <mxGeometry x="10" y="-820" width="510" height="450" as="geometry"/>
                </mxCell>
                <mxCell id="SD5oLy_yDbTEPHtpgn53-1" value="Inventory Tracking" style="html=1;" parent="1" vertex="1">
                    <mxGeometry x="30" y="-800" width="110" height="50" as="geometry"/>
                </mxCell>
                <mxCell id="SD5oLy_yDbTEPHtpgn53-2" value="ISE" style="html=1;" parent="1" vertex="1">
                    <mxGeometry x="330" y="-800" width="110" height="50" as="geometry"/>
                </mxCell>
                <mxCell id="SD5oLy_yDbTEPHtpgn53-9" value="" style="html=1;points=[];perimeter=orthogonalPerimeter;" parent="1" vertex="1">
                    <mxGeometry x="80" y="-730" width="10" height="320" as="geometry"/>
                </mxCell>
                <mxCell id="SD5oLy_yDbTEPHtpgn53-10" value="" style="html=1;points=[];perimeter=orthogonalPerimeter;" parent="1" vertex="1">
                    <mxGeometry x="380" y="-730" width="10" height="320" as="geometry"/>
                </mxCell>
                <mxCell id="SD5oLy_yDbTEPHtpgn53-11" value="GET ers/config/networkdevice" style="html=1;verticalAlign=bottom;endArrow=block;" parent="1" edge="1">
                    <mxGeometry width="80" relative="1" as="geometry">
                        <mxPoint x="90" y="-690" as="sourcePoint"/>
                        <mxPoint x="380" y="-690" as="targetPoint"/>
                    </mxGeometry>
                </mxCell>
                <mxCell id="SD5oLy_yDbTEPHtpgn53-13" value="&lt;div style=&quot;text-align: left&quot;&gt;HTTP 200 OK&lt;/div&gt;&lt;div style=&quot;text-align: left&quot;&gt;&lt;span style=&quot;color: rgb(0 , 204 , 0)&quot;&gt;Total:&lt;/span&gt;&lt;/div&gt;&lt;font color=&quot;#00cc00&quot;&gt;&lt;div style=&quot;text-align: left&quot;&gt;id: &quot;deviceid&quot;&lt;/div&gt;&lt;div style=&quot;text-align: left&quot;&gt;nextPage:&lt;/div&gt;&lt;div style=&quot;text-align: left&quot;&gt;href: {url of next page}&lt;/div&gt;&lt;/font&gt;" style="html=1;verticalAlign=bottom;endArrow=open;dashed=1;endSize=8;exitX=-0.233;exitY=0.416;exitDx=0;exitDy=0;exitPerimeter=0;" parent="1" source="SD5oLy_yDbTEPHtpgn53-10" target="SD5oLy_yDbTEPHtpgn53-9" edge="1">
                    <mxGeometry relative="1" as="geometry">
                        <mxPoint x="380" y="-650" as="sourcePoint"/>
                        <mxPoint x="300" y="-650" as="targetPoint"/>
                    </mxGeometry>
                </mxCell>
                <mxCell id="SD5oLy_yDbTEPHtpgn53-14" value="GET ers/config/networkdevice/&lt;font color=&quot;#00cc00&quot;&gt;{deviceid}&lt;/font&gt;" style="html=1;verticalAlign=bottom;endArrow=block;entryX=-0.067;entryY=0.57;entryDx=0;entryDy=0;entryPerimeter=0;exitX=1.017;exitY=0.567;exitDx=0;exitDy=0;exitPerimeter=0;" parent="1" source="SD5oLy_yDbTEPHtpgn53-9" target="SD5oLy_yDbTEPHtpgn53-10" edge="1">
                    <mxGeometry width="80" relative="1" as="geometry">
                        <mxPoint x="90" y="-580" as="sourcePoint"/>
                        <mxPoint x="379.9999999999998" y="-580" as="targetPoint"/>
                    </mxGeometry>
                </mxCell>
                <mxCell id="SD5oLy_yDbTEPHtpgn53-15" value="&lt;div style=&quot;text-align: left&quot;&gt;HTTP 200 OK&lt;/div&gt;&lt;div style=&quot;text-align: left&quot;&gt;&lt;span style=&quot;color: rgb(0 , 204 , 0)&quot;&gt;name:&lt;/span&gt;&lt;/div&gt;&lt;font color=&quot;#00cc00&quot;&gt;&lt;div style=&quot;text-align: left&quot;&gt;NetworkDeviceIPList:&lt;/div&gt;&lt;div style=&quot;text-align: left&quot;&gt;NetworkDeviceGroupList:&lt;/div&gt;&lt;/font&gt;" style="html=1;verticalAlign=bottom;endArrow=open;dashed=1;endSize=8;exitX=-0.233;exitY=0.812;exitDx=0;exitDy=0;exitPerimeter=0;" parent="1" source="SD5oLy_yDbTEPHtpgn53-10" target="SD5oLy_yDbTEPHtpgn53-9" edge="1">
                    <mxGeometry relative="1" as="geometry">
                        <mxPoint x="370" y="-470" as="sourcePoint"/>
                        <mxPoint x="100" y="-470" as="targetPoint"/>
                    </mxGeometry>
                </mxCell>
                <mxCell id="SD5oLy_yDbTEPHtpgn53-17" value="&lt;b&gt;ISE&lt;br&gt;Inventory Tracking&amp;nbsp;&lt;br&gt;Activity Diagram&lt;br&gt;&lt;/b&gt;" style="text;html=1;strokeColor=none;fillColor=none;align=left;verticalAlign=middle;whiteSpace=wrap;rounded=0;" parent="1" vertex="1">
                    <mxGeometry x="420" y="-470" width="80" height="80" as="geometry"/>
                </mxCell>
                <mxCell id="SD5oLy_yDbTEPHtpgn53-18" value="GET ers/config/networkdevice" style="html=1;verticalAlign=bottom;endArrow=block;" parent="1" edge="1">
                    <mxGeometry width="80" relative="1" as="geometry">
                        <mxPoint x="90" y="-690" as="sourcePoint"/>
                        <mxPoint x="380" y="-690" as="targetPoint"/>
                    </mxGeometry>
                </mxCell>
                <mxCell id="SD5oLy_yDbTEPHtpgn53-19" value="" style="html=1;points=[];perimeter=orthogonalPerimeter;" parent="1" vertex="1">
                    <mxGeometry x="80" y="-730" width="10" height="320" as="geometry"/>
                </mxCell>
                <mxCell id="SD5oLy_yDbTEPHtpgn53-20" value="" style="html=1;points=[];perimeter=orthogonalPerimeter;" parent="1" vertex="1">
                    <mxGeometry x="380" y="-730" width="10" height="320" as="geometry"/>
                </mxCell>
                <mxCell id="SD5oLy_yDbTEPHtpgn53-21" value="&lt;div style=&quot;text-align: left&quot;&gt;HTTP 200 OK&lt;/div&gt;&lt;div style=&quot;text-align: left&quot;&gt;&lt;span style=&quot;color: rgb(0 , 204 , 0)&quot;&gt;Total:&lt;/span&gt;&lt;/div&gt;&lt;font color=&quot;#00cc00&quot;&gt;&lt;div style=&quot;text-align: left&quot;&gt;id: &quot;deviceid&quot;&lt;/div&gt;&lt;div style=&quot;text-align: left&quot;&gt;nextPage:&lt;/div&gt;&lt;div style=&quot;text-align: left&quot;&gt;href: {url of next page}&lt;/div&gt;&lt;/font&gt;" style="html=1;verticalAlign=bottom;endArrow=open;dashed=1;endSize=8;exitX=-0.233;exitY=0.416;exitDx=0;exitDy=0;exitPerimeter=0;" parent="1" source="SD5oLy_yDbTEPHtpgn53-20" target="SD5oLy_yDbTEPHtpgn53-19" edge="1">
                    <mxGeometry relative="1" as="geometry">
                        <mxPoint x="380" y="-650" as="sourcePoint"/>
                        <mxPoint x="300" y="-650" as="targetPoint"/>
                    </mxGeometry>
                </mxCell>
                <mxCell id="SD5oLy_yDbTEPHtpgn53-22" value="GET ers/config/networkdevice/&lt;font color=&quot;#00cc00&quot;&gt;{deviceid}&lt;/font&gt;" style="html=1;verticalAlign=bottom;endArrow=block;entryX=-0.067;entryY=0.57;entryDx=0;entryDy=0;entryPerimeter=0;exitX=1.017;exitY=0.567;exitDx=0;exitDy=0;exitPerimeter=0;" parent="1" source="SD5oLy_yDbTEPHtpgn53-19" target="SD5oLy_yDbTEPHtpgn53-20" edge="1">
                    <mxGeometry width="80" relative="1" as="geometry">
                        <mxPoint x="90" y="-580" as="sourcePoint"/>
                        <mxPoint x="379.9999999999998" y="-580" as="targetPoint"/>
                    </mxGeometry>
                </mxCell>
            </root>
        </mxGraphModel>
    </diagram>
</mxfile>